<svg xmlns="http://www.w3.org/2000/svg" width="430" height="430" style="width:100%;height:100%;transform:translate3d(0,0,0);content-visibility:visible" viewBox="0 0 430 430"><defs><clipPath id="g"><path d="M0 0h430v430H0z"/></clipPath><clipPath id="k"><path d="M0 0h430v430H0z"/></clipPath><clipPath id="d"><path d="M0 0h430v430H0z"/></clipPath><clipPath id="h"><path d="M0 0h430v430H0z"/></clipPath><clipPath id="f"><path d="M0 0h430v430H0z"/></clipPath><filter id="l" width="300%" height="300%" x="-100%" y="-100%"><feGaussianBlur result="filter_result_0"/></filter><filter id="j" width="300%" height="300%" x="-100%" y="-100%"><feGaussianBlur result="filter_result_0" stdDeviation="52.5 52.5"/></filter><mask id="m" mask-type="alpha"><use xmlns:ns1="http://www.w3.org/1999/xlink" ns1:href="#a"/></mask><mask id="i" mask-type="alpha"><use xmlns:ns2="http://www.w3.org/1999/xlink" ns2:href="#b"/></mask><g id="a" fill-opacity="0" stroke-linecap="round" stroke-linejoin="round" clip-path="url(#d)" style="display:none"><g style="display:none"><path class="primary"/><path class="primary"/><path class="primary"/></g><path class="secondary" style="display:none"/><path class="secondary" style="display:none"/><path class="secondary" style="display:none"/><path class="secondary" style="display:none"/></g><g id="b" fill-opacity="0" stroke-linecap="round" stroke-linejoin="round" clip-path="url(#f)" style="display:block"><g stroke="#121331" style="display:block"><path stroke-width="18" d="M89.419 210.038c0 35.454 17.089 73.723 44.047 100.927 21.939 22.139 50.415 36.95 81.534 36.95 26.45 0 50.991-10.7 71.231-27.506 32.833-27.261 54.35-70.588 54.35-110.371 0-46.683-56.224-87.861-125.581-87.861S89.419 163.355 89.419 210.038m.355-6.377C86.062 194.626 47.821 99.54 72.182 83.77c17.926-11.602 61.145 25.305 85.417 48.454m115.41-.741c24.272-23.149 67.491-60.056 85.417-48.454 24.361 15.77-13.88 110.856-17.592 119.891m-103.371 52.412c6.803 6.929-11.317 30.035-22.635 30.035s-28.352-22.552-22.636-30.035 38.468-6.929 45.271 0m9.814 52.939S215 300.307 215 285.367c0 14.94-32.277 22.028-32.277 22.028" class="primary"/><path stroke-width="27" d="M258.372 214.723q0 0 0 0m-85.004 0q0 0 0 0" class="primary"/></g><path stroke="#08A88A" stroke-width="18" d="M58.31 5.137C5.074-13.944-58.31-.6-58.31-.6" class="secondary" style="display:block" transform="translate(92.801 251.037)"/><path stroke="#08A88A" stroke-width="18" d="M32.006-4.672C.913-8.984-32.006 5.475-32.006 5.475" class="secondary" style="display:block" transform="translate(119.105 288.522)"/><path stroke="#08A88A" stroke-width="18" d="M-58.31 5.137C-5.074-13.944 58.31-.6 58.31-.6" class="secondary" style="display:block" transform="translate(337.199 251.037)"/><path stroke="#08A88A" stroke-width="18" d="M-32.006-4.672C-.913-8.984 32.006 5.475 32.006 5.475" class="secondary" style="display:block" transform="translate(310.895 288.522)"/></g></defs><g clip-path="url(#g)"><g clip-path="url(#h)" mask="url(#i)" style="display:block"><g filter="url(#j)" transform="rotate(-94 224.774 -31.565)scale(2.4)"><g class="design"><path fill="#4AE0EB" d="M0-250c137.975 0 250 112.025 250 250S137.975 250 0 250-250 137.975-250 0-137.975-250 0-250" class="primary"/></g><g class="design"><path fill="#CA5EED" d="M113.242-295.384c97.478 0 176.5 79.022 176.5 176.5s-79.022 176.5-176.5 176.5c-43.948 0-74.396-34.057-105.29-60.631-37.631-32.369-71.21-62.338-71.21-115.869 0-97.478 79.022-176.5 176.5-176.5" class="secondary"/></g></g></g><g clip-path="url(#k)" filter="url(#l)" mask="url(#m)" style="display:none"><g class="design"><path class="primary"/></g><g class="design"><path class="secondary"/></g></g></g></svg>